<?xml version="1.0" encoding="UTF-8"?>
<svg viewBox="0 0 64 64" xmlns="http://www.w3.org/2000/svg">
<path d="M38.25,3C55,4,59,5,57,19S35.902,54.35,14,58c0,0-14.972,3-9.986-27L38.25,3z" fill="#ed7899"/>
<path d="M3 31L3 45 8.922 36.721zM8.922 37.061L14 57 22.312 34.312zM23 34L42 42 36 22zM33 4L40 9 46 3 33 3zM37 22L40 9 58 15z" fill="#f98cb3"/>
<path d="m41.638 43.89c1.217-1.359 14.408-16.213 15.362-22.89l-1 35-33 1 18.437-12.932c0.075-0.052 0.14-0.11 0.201-0.178z" fill="#ed7899"/>
<path d="M43 43L55.5 55.5 21 58z" fill="#e0678f"/>
<path d="m4.541 28.096 4.347-7.608c0.176-0.309 0.393-0.593 0.645-0.844l9.985-9.985c0.304-0.304 0.655-0.557 1.04-0.749l9.38-4.69c1.284-0.642 2.813-0.547 4.008 0.249l4.067 2.711c1.501 1.001 2.147 2.882 1.576 4.593l-3.149 9.447c-0.222 0.665-0.614 1.259-1.137 1.725l-12.244 10.883c-0.509 0.452-1.125 0.767-1.79 0.915l-10.003 2.223c-1.49 0.331-3.038-0.214-3.991-1.406l-2.384-2.98c-1.026-1.282-1.164-3.059-0.35-4.484z" fill="#ed7899"/>
<path d="m38.192 25.812c-0.156-0.53-0.713-0.835-1.241-0.678-0.53 0.155-0.833 0.711-0.678 1.241l0.744 2.539c0.128 0.436 0.526 0.719 0.959 0.719 0.093 0 0.188-0.013 0.282-0.041 0.53-0.155 0.833-0.711 0.678-1.241l-0.744-2.539z" fill="#8d6c9f"/>
<path d="m58.815 11.967c-0.043-0.366-0.095-0.727-0.165-1.077-0.01 0-0.01-0.01 0-0.02-0.21-1.01-0.52-1.95-0.93-2.81-0.5-1.04-1.15-1.98-1.96-2.79-2.13-2.13-5.11-3.21-8.86-3.21h-13.16c-1.13 0-2.25 0.28-3.25 0.8 0 0-0.82 0.38-1 0.47l-9.38 4.69c-0.48 0.24-0.92 0.55-1.3 0.93l-9.98 9.99c-0.32 0.31-0.59 0.67-0.81 1.05l-4.99 8.82c-0.65 1.09-1 2.33-1 3.6l0.068 13.503c-0.048 0.832-0.05 1.639 0.012 2.417 0.03 0.41 0.08 0.82 0.13 1.22 0.17 1.07 0.45 2.06 0.83 2.98 0.12 0.28 0.25 0.55 0.39 0.82 0.47 0.9 1.06 1.72 1.78 2.44 0.264 0.264 0.541 0.511 0.83 0.742 0.169 0.135 0.351 0.252 0.528 0.376 0.126 0.088 0.245 0.184 0.375 0.266 0.257 0.163 0.528 0.307 0.802 0.448 0.059 0.03 0.114 0.067 0.174 0.096 0.32 0.157 0.653 0.297 0.995 0.425 0.018 7e-3 0.035 0.016 0.054 0.023 1.45 0.535 3.098 0.811 4.931 0.827 9e-3 1e-3 0.016 5e-3 0.025 5e-3 0.016 2e-3 0.031 2e-3 0.046 2e-3 7e-3 0 0.012-3e-3 0.019-3e-3 0.028 0 0.053 3e-3 0.081 3e-3 0.37 0 0.74-0.01 1.11-0.04 0.46-0.02 0.92-0.06 1.39-0.11h0.02l38.88-1.94c1.04-0.05 1.86-0.88 1.9-1.92l1.49-38.7c0.01-0.07 0.08-1.97 0.08-2.14 0-0.758-0.062-1.48-0.155-2.183zm-15.145-7.907-0.3 0.33-3.31 3.543c-0.371-0.616-0.865-1.165-1.49-1.583l-0.66-0.44-2.02-1.34h-0.01l-0.76-0.51h8.55zm-38.49 25.05c0.05-0.18 0.13-0.35 0.23-0.52l4.35-7.61c0.13-0.23 0.29-0.44 0.48-0.63l9.98-9.98c0.23-0.23 0.5-0.42 0.78-0.57l9.38-4.69c0.15-0.07 0.3-0.13 0.46-0.18 0.29-0.09 0.59-0.13 0.88-0.13 0.59 0 1.17 0.17 1.67 0.5l0.36 0.24 1.93 1.29 1.78 1.18c1.12 0.75 1.61 2.17 1.18 3.45l-3.15 9.44c-0.17 0.5-0.46 0.95-0.85 1.3l-12.25 10.88c-0.38 0.34-0.84 0.58-1.34 0.69l-10 2.22c-1.13 0.25-2.27-0.16-2.99-1.05l-0.58-0.73-1.33-1.66-0.01-0.01-0.47-0.59c-0.44-0.54-0.66-1.2-0.66-1.87 0-0.33 0.05-0.65 0.17-0.97zm5.087 27.362c-0.084-0.025-0.17-0.048-0.252-0.075-0.176-0.058-0.345-0.124-0.514-0.19-0.118-0.047-0.237-0.093-0.352-0.144-0.145-0.064-0.286-0.132-0.425-0.202-0.134-0.068-0.264-0.139-0.393-0.213-0.117-0.067-0.234-0.135-0.347-0.207-0.151-0.097-0.296-0.201-0.439-0.306-0.085-0.062-0.172-0.122-0.255-0.187-0.223-0.178-0.438-0.366-0.641-0.567-2.079-2.091-2.919-5.171-2.649-8.831l3.53-5.3c0.31-0.46 0.19-1.08-0.27-1.38-0.46-0.31-1.08-0.19-1.39 0.27l-0.92 1.37v0.02l-0.92 1.37v-8.81c0.02 0.04 0.05 0.07 0.08 0.11l1.07 1.33 1.31 1.65c0.01 0.02 0.03 0.04 0.04 0.05 0.416 0.506 0.914 0.908 1.46 1.209-3e-3 0.09 4.719 19.494 4.719 19.494-0.876-0.077-1.688-0.234-2.442-0.461zm5.983 0.398-0.16 0.01c-0.085 9e-3 -0.162 0.015-0.244 0.023-0.062 5e-3 -0.126 0.011-0.187 0.015-0.079 8e-3 -0.156 0.012-0.235 0.019l4.04-11.741c0.18-0.522-0.098-1.091-0.621-1.271-0.522-0.181-1.092 0.098-1.271 0.621l-3.41 9.911-4.019-16.41c0.079 4e-3 0.157 0.013 0.237 0.013 0.37 0 0.74-0.04 1.1-0.12l10.01-2.22c0.218-0.05 0.431-0.115 0.64-0.192l19.355 7.186c0.048 0.018 0.099 0.016 0.148 0.027-8.216 8.035-17.683 13.288-25.383 14.129zm39.15-1.96-30.12 1.51c6.12-2.59 12.56-7.03 18.32-12.79 6.02-6.02 10.45-12.65 12.96-18.82l-1.16 30.1zm1.47-38.14c-0.984 7.291-6.025 16.545-14.067 24.797-5e-3 -0.024-4e-3 -0.048-0.011-0.072l-2.549-8.69c-0.156-0.53-0.712-0.837-1.241-0.678-0.53 0.155-0.834 0.711-0.678 1.241l1.988 6.778-16.12-5.985 11.778-10.471c0.182-0.162 0.348-0.34 0.503-0.526l20.401-6.74c4e-3 0.027 0 0.059 5e-3 0.085l-9e-3 0.261zm-19.186 3.888 2.856-8.568c0.229-0.686 0.284-1.393 0.213-2.082l5.407 1.912c0.11 0.04 0.22 0.06 0.33 0.06 0.41 0 0.8-0.26 0.95-0.67 0.18-0.52-0.09-1.09-0.61-1.27l-4.51-1.6 4.07-4.37c0.17-0.01 0.34-0.01 0.51-0.01 3.2 0 5.7 0.88 7.45 2.62 0.23 0.23 0.44 0.47 0.64 0.73 1.331 1.718 1.989 4.065 1.969 6.881l-19.275 6.367z" fill="#8d6c9f"/>
<path d="M53.15 12.274l-2.447-.867c-.52-.184-1.092.088-1.277.609-.184.521.088 1.092.609 1.277l2.447.867c.11.039.223.058.334.058.412 0 .797-.256.943-.667C53.943 13.031 53.67 12.459 53.15 12.274zM51.561 54.475c.256 0 .512-.098.707-.293l1.415-1.415c.391-.391.391-1.023 0-1.414s-1.023-.391-1.414 0l-1.415 1.415c-.391.391-.391 1.023 0 1.414C51.049 54.377 51.305 54.475 51.561 54.475zM48.025 50.939c.256 0 .512-.098.707-.293l1.415-1.415c.391-.391.391-1.023 0-1.414s-1.023-.391-1.414 0l-1.415 1.415c-.391.391-.391 1.023 0 1.414C47.513 50.842 47.769 50.939 48.025 50.939zM43.783 47.111c.195.195.451.293.707.293s.512-.098.707-.293l1.414-1.414c.391-.391.391-1.023 0-1.414s-1.023-.391-1.414 0l-1.414 1.414C43.392 46.087 43.392 46.72 43.783 47.111z" fill="#8d6c9f"/>
</svg>
